<svg xmlns="http://www.w3.org/2000/svg" viewBox="0 0 180 180" width="180" height="180">
  <defs>
    <linearGradient id="logoGradient" x1="0%" y1="0%" x2="100%" y2="100%">
      <stop offset="0%" style="stop-color:#4a9eff;stop-opacity:1" />
      <stop offset="100%" style="stop-color:#1e3a5f;stop-opacity:1" />
    </linearGradient>
    <linearGradient id="signalGradient" x1="0%" y1="0%" x2="100%" y2="0%">
      <stop offset="0%" style="stop-color:#10b981;stop-opacity:1" />
      <stop offset="100%" style="stop-color:#34d399;stop-opacity:1" />
    </linearGradient>
  </defs>
  
  <!-- Background circle -->
  <circle cx="90" cy="90" r="85" fill="url(#logoGradient)" stroke="#ffffff" stroke-width="2"/>
  
  <!-- Guide arrow/compass -->
  <g transform="translate(90,90)">
    <!-- Main compass body -->
    <circle cx="0" cy="0" r="35" fill="rgba(255,255,255,0.9)" stroke="rgba(30,58,95,0.3)" stroke-width="1"/>
    
    <!-- Compass needle pointing up (North) -->
    <path d="M 0,-30 L 8,-10 L 0,-15 L -8,-10 Z" fill="#ef4444"/>
    <path d="M 0,30 L 8,10 L 0,15 L -8,10 Z" fill="rgba(255,255,255,0.8)"/>
    
    <!-- Center dot -->
    <circle cx="0" cy="0" r="3" fill="#1e3a5f"/>
    
    <!-- Compass marks -->
    <g stroke="#1e3a5f" stroke-width="2" opacity="0.7">
      <line x1="0" y1="-35" x2="0" y2="-40"/>
      <line x1="35" y1="0" x2="40" y2="0"/>
      <line x1="0" y1="35" x2="0" y2="40"/>
      <line x1="-35" y1="0" x2="-40" y2="0"/>
    </g>
  </g>
  
  <!-- Signal waves emanating from compass -->
  <g transform="translate(90,90)" opacity="0.8">
    <!-- Signal arcs -->
    <path d="M -50,-50 Q 0,-70 50,-50" fill="none" stroke="url(#signalGradient)" stroke-width="3" stroke-linecap="round"/>
    <path d="M -40,-40 Q 0,-55 40,-40" fill="none" stroke="url(#signalGradient)" stroke-width="2" stroke-linecap="round" opacity="0.8"/>
    <path d="M -60,-30 Q 0,-50 60,-30" fill="none" stroke="url(#signalGradient)" stroke-width="2" stroke-linecap="round" opacity="0.6"/>
  </g>
  
  <!-- Connecting dots/nodes -->
  <g fill="#10b981">
    <circle cx="45" cy="45" r="4" opacity="0.8"/>
    <circle cx="135" cy="45" r="4" opacity="0.8"/>
    <circle cx="45" cy="135" r="4" opacity="0.6"/>
    <circle cx="135" cy="135" r="4" opacity="0.6"/>
  </g>
  
  <!-- Connection lines -->
  <g stroke="#10b981" stroke-width="2" opacity="0.4">
    <line x1="45" y1="45" x2="90" y2="90"/>
    <line x1="135" y1="45" x2="90" y2="90"/>
    <line x1="45" y1="135" x2="90" y2="90"/>
    <line x1="135" y1="135" x2="90" y2="90"/>
  </g>
</svg>